<svg width="360" height="42" viewBox="0 0 360 42" fill="none" xmlns="http://www.w3.org/2000/svg">
<rect width="360" height="42" rx="21" fill="#F2F2F2"/>
<path d="M28.2083 22.8333H27.4842L27.2275 22.5858C28.1258 21.5408 28.6667 20.1842 28.6667 18.7083C28.6667 15.4175 25.9992 12.75 22.7083 12.75C19.4175 12.75 16.75 15.4175 16.75 18.7083C16.75 21.9992 19.4175 24.6667 22.7083 24.6667C24.1842 24.6667 25.5408 24.1258 26.5858 23.2275L26.8333 23.4842V24.2083L31.4167 28.7825L32.7825 27.4167L28.2083 22.8333ZM22.7083 22.8333C20.4258 22.8333 18.5833 20.9908 18.5833 18.7083C18.5833 16.4258 20.4258 14.5833 22.7083 14.5833C24.9908 14.5833 26.8333 16.4258 26.8333 18.7083C26.8333 20.9908 24.9908 22.8333 22.7083 22.8333Z" fill="#7A7A7A"/>
<path d="M54.13 26.168C53.3087 26.168 52.6087 26.0187 52.03 25.72C51.4607 25.4213 50.9707 25.02 50.56 24.516L51.652 23.494C51.9973 23.914 52.3753 24.2313 52.786 24.446C53.206 24.6607 53.682 24.768 54.214 24.768C54.8393 24.768 55.3107 24.628 55.628 24.348C55.9453 24.068 56.104 23.69 56.104 23.214C56.104 22.8313 55.992 22.528 55.768 22.304C55.544 22.08 55.1473 21.912 54.578 21.8L53.71 21.646C52.758 21.4687 52.044 21.156 51.568 20.708C51.092 20.26 50.854 19.644 50.854 18.86C50.854 18.4307 50.9333 18.0433 51.092 17.698C51.26 17.3433 51.4887 17.0493 51.778 16.816C52.0767 16.5733 52.436 16.3867 52.856 16.256C53.276 16.1253 53.7473 16.06 54.27 16.06C55.0073 16.06 55.6467 16.1907 56.188 16.452C56.7293 16.704 57.1913 17.0727 57.574 17.558L56.468 18.538C56.216 18.2113 55.908 17.95 55.544 17.754C55.18 17.558 54.7273 17.46 54.186 17.46C53.626 17.46 53.192 17.572 52.884 17.796C52.576 18.02 52.422 18.3467 52.422 18.776C52.422 19.1867 52.548 19.4947 52.8 19.7C53.052 19.896 53.444 20.0453 53.976 20.148L54.844 20.33C55.824 20.5167 56.538 20.834 56.986 21.282C57.4433 21.73 57.672 22.346 57.672 23.13C57.672 23.5873 57.5927 24.0027 57.434 24.376C57.2753 24.7493 57.042 25.0713 56.734 25.342C56.4353 25.6033 56.0667 25.8087 55.628 25.958C55.1893 26.098 54.69 26.168 54.13 26.168ZM62.3152 26.168C61.7925 26.168 61.3259 26.0793 60.9152 25.902C60.5045 25.7247 60.1545 25.4727 59.8652 25.146C59.5759 24.81 59.3519 24.4087 59.1932 23.942C59.0439 23.466 58.9692 22.9387 58.9692 22.36C58.9692 21.7813 59.0439 21.2587 59.1932 20.792C59.3519 20.316 59.5759 19.9147 59.8652 19.588C60.1545 19.252 60.5045 18.9953 60.9152 18.818C61.3259 18.6407 61.7925 18.552 62.3152 18.552C62.8472 18.552 63.3139 18.6453 63.7152 18.832C64.1259 19.0187 64.4665 19.28 64.7372 19.616C65.0079 19.9427 65.2085 20.3253 65.3392 20.764C65.4792 21.2027 65.5492 21.674 65.5492 22.178V22.752H60.5512V22.99C60.5512 23.55 60.7145 24.012 61.0412 24.376C61.3772 24.7307 61.8532 24.908 62.4692 24.908C62.9172 24.908 63.2952 24.81 63.6032 24.614C63.9112 24.418 64.1725 24.152 64.3872 23.816L65.2832 24.698C65.0125 25.146 64.6205 25.5053 64.1072 25.776C63.5939 26.0373 62.9965 26.168 62.3152 26.168ZM62.3152 19.742C62.0539 19.742 61.8112 19.7887 61.5872 19.882C61.3725 19.9753 61.1859 20.106 61.0272 20.274C60.8779 20.442 60.7612 20.6427 60.6772 20.876C60.5932 21.1093 60.5512 21.366 60.5512 21.646V21.744H63.9392V21.604C63.9392 21.044 63.7945 20.596 63.5052 20.26C63.2159 19.9147 62.8192 19.742 62.3152 19.742ZM72.5725 26C72.1712 26 71.8632 25.888 71.6485 25.664C71.4338 25.4307 71.3032 25.1367 71.2565 24.782H71.1865C71.0465 25.2393 70.7898 25.5847 70.4165 25.818C70.0432 26.0513 69.5905 26.168 69.0585 26.168C68.3025 26.168 67.7192 25.972 67.3085 25.58C66.9072 25.188 66.7065 24.6607 66.7065 23.998C66.7065 23.27 66.9678 22.724 67.4905 22.36C68.0225 21.996 68.7972 21.814 69.8145 21.814H71.1305V21.198C71.1305 20.75 71.0092 20.4047 70.7665 20.162C70.5238 19.9193 70.1458 19.798 69.6325 19.798C69.2032 19.798 68.8532 19.8913 68.5825 20.078C68.3118 20.2647 68.0832 20.5027 67.8965 20.792L66.9865 19.966C67.2292 19.5553 67.5698 19.2193 68.0085 18.958C68.4472 18.6873 69.0212 18.552 69.7305 18.552C70.6732 18.552 71.3965 18.7713 71.9005 19.21C72.4045 19.6487 72.6565 20.2787 72.6565 21.1V24.754H73.4265V26H72.5725ZM69.4925 25.006C69.9685 25.006 70.3605 24.9033 70.6685 24.698C70.9765 24.4833 71.1305 24.1987 71.1305 23.844V22.794H69.8425C68.7878 22.794 68.2605 23.1207 68.2605 23.774V24.026C68.2605 24.3527 68.3678 24.6 68.5825 24.768C68.8065 24.9267 69.1098 25.006 69.4925 25.006ZM74.9221 26V18.72H76.4481V20.12H76.5181C76.6207 19.7467 76.8354 19.42 77.1621 19.14C77.4887 18.86 77.9414 18.72 78.5201 18.72H78.9261V20.19H78.3241C77.7174 20.19 77.2507 20.288 76.9241 20.484C76.6067 20.68 76.4481 20.9693 76.4481 21.352V26H74.9221ZM83.0271 26.168C82.5044 26.168 82.0378 26.0793 81.6271 25.902C81.2164 25.7247 80.8711 25.4727 80.5911 25.146C80.3111 24.81 80.0964 24.4087 79.9471 23.942C79.7978 23.466 79.7231 22.9387 79.7231 22.36C79.7231 21.7813 79.7978 21.2587 79.9471 20.792C80.0964 20.316 80.3111 19.9147 80.5911 19.588C80.8711 19.252 81.2164 18.9953 81.6271 18.818C82.0378 18.6407 82.5044 18.552 83.0271 18.552C83.7551 18.552 84.3524 18.7153 84.8191 19.042C85.2858 19.3687 85.6264 19.8027 85.8411 20.344L84.5811 20.932C84.4784 20.596 84.2964 20.33 84.0351 20.134C83.7831 19.9287 83.4471 19.826 83.0271 19.826C82.4671 19.826 82.0424 20.0033 81.7531 20.358C81.4731 20.7033 81.3331 21.156 81.3331 21.716V23.018C81.3331 23.578 81.4731 24.0353 81.7531 24.39C82.0424 24.7353 82.4671 24.908 83.0271 24.908C83.4751 24.908 83.8298 24.8007 84.0911 24.586C84.3618 24.362 84.5764 24.068 84.7351 23.704L85.8971 24.32C85.6544 24.9173 85.2904 25.3747 84.8051 25.692C84.3198 26.0093 83.7271 26.168 83.0271 26.168ZM87.3498 15.64H88.8758V19.924H88.9458C89.1045 19.532 89.3425 19.2053 89.6598 18.944C89.9865 18.6827 90.4298 18.552 90.9898 18.552C91.7365 18.552 92.3151 18.7993 92.7258 19.294C93.1458 19.7793 93.3558 20.4747 93.3558 21.38V26H91.8298V21.562C91.8298 20.4327 91.3725 19.868 90.4578 19.868C90.2618 19.868 90.0658 19.896 89.8698 19.952C89.6831 19.9987 89.5151 20.0733 89.3658 20.176C89.2165 20.2787 89.0951 20.4093 89.0018 20.568C88.9178 20.7267 88.8758 20.9087 88.8758 21.114V26H87.3498V15.64ZM99.1575 19.966H98.0515V18.72H99.1575V17.516C99.1575 16.928 99.3115 16.4707 99.6195 16.144C99.9275 15.808 100.39 15.64 101.006 15.64H102.21V16.886H100.684V18.72H102.21V19.966H100.684V26H99.1575V19.966ZM106.339 26.168C105.835 26.168 105.373 26.0793 104.953 25.902C104.542 25.7247 104.192 25.4727 103.903 25.146C103.613 24.81 103.389 24.4087 103.231 23.942C103.072 23.466 102.993 22.9387 102.993 22.36C102.993 21.7813 103.072 21.2587 103.231 20.792C103.389 20.316 103.613 19.9147 103.903 19.588C104.192 19.252 104.542 18.9953 104.953 18.818C105.373 18.6407 105.835 18.552 106.339 18.552C106.843 18.552 107.3 18.6407 107.711 18.818C108.131 18.9953 108.485 19.252 108.775 19.588C109.064 19.9147 109.288 20.316 109.447 20.792C109.605 21.2587 109.685 21.7813 109.685 22.36C109.685 22.9387 109.605 23.466 109.447 23.942C109.288 24.4087 109.064 24.81 108.775 25.146C108.485 25.4727 108.131 25.7247 107.711 25.902C107.3 26.0793 106.843 26.168 106.339 26.168ZM106.339 24.908C106.861 24.908 107.281 24.7493 107.599 24.432C107.916 24.1053 108.075 23.62 108.075 22.976V21.744C108.075 21.1 107.916 20.6193 107.599 20.302C107.281 19.9753 106.861 19.812 106.339 19.812C105.816 19.812 105.396 19.9753 105.079 20.302C104.761 20.6193 104.603 21.1 104.603 21.744V22.976C104.603 23.62 104.761 24.1053 105.079 24.432C105.396 24.7493 105.816 24.908 106.339 24.908ZM111.385 26V18.72H112.911V20.12H112.981C113.084 19.7467 113.298 19.42 113.625 19.14C113.952 18.86 114.404 18.72 114.983 18.72H115.389V20.19H114.787C114.18 20.19 113.714 20.288 113.387 20.484C113.07 20.68 112.911 20.9693 112.911 21.352V26H111.385ZM124.519 18.72H125.989L122.923 27.442C122.839 27.6847 122.741 27.89 122.629 28.058C122.526 28.2353 122.4 28.3753 122.251 28.478C122.111 28.59 121.938 28.6693 121.733 28.716C121.528 28.772 121.285 28.8 121.005 28.8H120.123V27.554H121.355L121.775 26.322L119.129 18.72H120.655L122.111 23.004L122.531 24.586H122.601L123.063 23.004L124.519 18.72ZM130.018 26.168C129.514 26.168 129.052 26.0793 128.632 25.902C128.222 25.7247 127.872 25.4727 127.582 25.146C127.293 24.81 127.069 24.4087 126.91 23.942C126.752 23.466 126.672 22.9387 126.672 22.36C126.672 21.7813 126.752 21.2587 126.91 20.792C127.069 20.316 127.293 19.9147 127.582 19.588C127.872 19.252 128.222 18.9953 128.632 18.818C129.052 18.6407 129.514 18.552 130.018 18.552C130.522 18.552 130.98 18.6407 131.39 18.818C131.81 18.9953 132.165 19.252 132.454 19.588C132.744 19.9147 132.968 20.316 133.126 20.792C133.285 21.2587 133.364 21.7813 133.364 22.36C133.364 22.9387 133.285 23.466 133.126 23.942C132.968 24.4087 132.744 24.81 132.454 25.146C132.165 25.4727 131.81 25.7247 131.39 25.902C130.98 26.0793 130.522 26.168 130.018 26.168ZM130.018 24.908C130.541 24.908 130.961 24.7493 131.278 24.432C131.596 24.1053 131.754 23.62 131.754 22.976V21.744C131.754 21.1 131.596 20.6193 131.278 20.302C130.961 19.9753 130.541 19.812 130.018 19.812C129.496 19.812 129.076 19.9753 128.758 20.302C128.441 20.6193 128.282 21.1 128.282 21.744V22.976C128.282 23.62 128.441 24.1053 128.758 24.432C129.076 24.7493 129.496 24.908 130.018 24.908ZM139.475 24.796H139.419C139.353 24.9733 139.265 25.146 139.153 25.314C139.05 25.482 138.915 25.6313 138.747 25.762C138.588 25.8833 138.392 25.9813 138.159 26.056C137.935 26.1307 137.673 26.168 137.375 26.168C136.619 26.168 136.031 25.9253 135.611 25.44C135.2 24.9547 134.995 24.2593 134.995 23.354V18.72H136.521V23.158C136.521 24.2873 136.987 24.852 137.921 24.852C138.117 24.852 138.308 24.8287 138.495 24.782C138.681 24.726 138.845 24.6467 138.985 24.544C139.134 24.4413 139.251 24.3107 139.335 24.152C139.428 23.9933 139.475 23.8067 139.475 23.592V18.72H141.001V26H139.475V24.796ZM143.186 26V18.72H144.712V20.12H144.782C144.884 19.7467 145.099 19.42 145.426 19.14C145.752 18.86 146.205 18.72 146.784 18.72H147.19V20.19H146.588C145.981 20.19 145.514 20.288 145.188 20.484C144.87 20.68 144.712 20.9693 144.712 21.352V26H143.186ZM152.232 19.966H151.126V18.72H152.232V17.516C152.232 16.928 152.386 16.4707 152.694 16.144C153.002 15.808 153.464 15.64 154.08 15.64H155.284V16.886H153.758V18.72H155.284V19.966H153.758V26H152.232V19.966ZM161.946 26C161.544 26 161.236 25.888 161.022 25.664C160.807 25.4307 160.676 25.1367 160.63 24.782H160.56C160.42 25.2393 160.163 25.5847 159.79 25.818C159.416 26.0513 158.964 26.168 158.432 26.168C157.676 26.168 157.092 25.972 156.682 25.58C156.28 25.188 156.08 24.6607 156.08 23.998C156.08 23.27 156.341 22.724 156.864 22.36C157.396 21.996 158.17 21.814 159.188 21.814H160.504V21.198C160.504 20.75 160.382 20.4047 160.14 20.162C159.897 19.9193 159.519 19.798 159.006 19.798C158.576 19.798 158.226 19.8913 157.956 20.078C157.685 20.2647 157.456 20.5027 157.27 20.792L156.36 19.966C156.602 19.5553 156.943 19.2193 157.382 18.958C157.82 18.6873 158.394 18.552 159.104 18.552C160.046 18.552 160.77 18.7713 161.274 19.21C161.778 19.6487 162.03 20.2787 162.03 21.1V24.754H162.8V26H161.946ZM158.866 25.006C159.342 25.006 159.734 24.9033 160.042 24.698C160.35 24.4833 160.504 24.1987 160.504 23.844V22.794H159.216C158.161 22.794 157.634 23.1207 157.634 23.774V24.026C157.634 24.3527 157.741 24.6 157.956 24.768C158.18 24.9267 158.483 25.006 158.866 25.006ZM165.754 26L163.276 18.72H164.788L165.894 22.038L166.636 24.586H166.72L167.462 22.038L168.596 18.72H170.052L167.546 26H165.754ZM174.083 26.168C173.579 26.168 173.117 26.0793 172.697 25.902C172.286 25.7247 171.936 25.4727 171.647 25.146C171.357 24.81 171.133 24.4087 170.975 23.942C170.816 23.466 170.737 22.9387 170.737 22.36C170.737 21.7813 170.816 21.2587 170.975 20.792C171.133 20.316 171.357 19.9147 171.647 19.588C171.936 19.252 172.286 18.9953 172.697 18.818C173.117 18.6407 173.579 18.552 174.083 18.552C174.587 18.552 175.044 18.6407 175.455 18.818C175.875 18.9953 176.229 19.252 176.519 19.588C176.808 19.9147 177.032 20.316 177.191 20.792C177.349 21.2587 177.429 21.7813 177.429 22.36C177.429 22.9387 177.349 23.466 177.191 23.942C177.032 24.4087 176.808 24.81 176.519 25.146C176.229 25.4727 175.875 25.7247 175.455 25.902C175.044 26.0793 174.587 26.168 174.083 26.168ZM174.083 24.908C174.605 24.908 175.025 24.7493 175.343 24.432C175.66 24.1053 175.819 23.62 175.819 22.976V21.744C175.819 21.1 175.66 20.6193 175.343 20.302C175.025 19.9753 174.605 19.812 174.083 19.812C173.56 19.812 173.14 19.9753 172.823 20.302C172.505 20.6193 172.347 21.1 172.347 21.744V22.976C172.347 23.62 172.505 24.1053 172.823 24.432C173.14 24.7493 173.56 24.908 174.083 24.908ZM179.129 26V18.72H180.655V20.12H180.725C180.828 19.7467 181.042 19.42 181.369 19.14C181.696 18.86 182.148 18.72 182.727 18.72H183.133V20.19H182.531C181.924 20.19 181.458 20.288 181.131 20.484C180.814 20.68 180.655 20.9693 180.655 21.352V26H179.129ZM185.258 17.418C184.941 17.418 184.708 17.3433 184.558 17.194C184.418 17.0447 184.348 16.8533 184.348 16.62V16.382C184.348 16.1487 184.418 15.9573 184.558 15.808C184.708 15.6587 184.941 15.584 185.258 15.584C185.576 15.584 185.804 15.6587 185.944 15.808C186.084 15.9573 186.154 16.1487 186.154 16.382V16.62C186.154 16.8533 186.084 17.0447 185.944 17.194C185.804 17.3433 185.576 17.418 185.258 17.418ZM184.488 18.72H186.014V26H184.488V18.72ZM190.21 26C189.678 26 189.276 25.8647 189.006 25.594C188.735 25.314 188.6 24.922 188.6 24.418V19.966H187.466V18.72H188.082C188.334 18.72 188.506 18.664 188.6 18.552C188.702 18.44 188.754 18.258 188.754 18.006V16.732H190.126V18.72H191.652V19.966H190.126V24.754H191.54V26H190.21ZM196.108 26.168C195.585 26.168 195.119 26.0793 194.708 25.902C194.297 25.7247 193.947 25.4727 193.658 25.146C193.369 24.81 193.145 24.4087 192.986 23.942C192.837 23.466 192.762 22.9387 192.762 22.36C192.762 21.7813 192.837 21.2587 192.986 20.792C193.145 20.316 193.369 19.9147 193.658 19.588C193.947 19.252 194.297 18.9953 194.708 18.818C195.119 18.6407 195.585 18.552 196.108 18.552C196.64 18.552 197.107 18.6453 197.508 18.832C197.919 19.0187 198.259 19.28 198.53 19.616C198.801 19.9427 199.001 20.3253 199.132 20.764C199.272 21.2027 199.342 21.674 199.342 22.178V22.752H194.344V22.99C194.344 23.55 194.507 24.012 194.834 24.376C195.17 24.7307 195.646 24.908 196.262 24.908C196.71 24.908 197.088 24.81 197.396 24.614C197.704 24.418 197.965 24.152 198.18 23.816L199.076 24.698C198.805 25.146 198.413 25.5053 197.9 25.776C197.387 26.0373 196.789 26.168 196.108 26.168ZM196.108 19.742C195.847 19.742 195.604 19.7887 195.38 19.882C195.165 19.9753 194.979 20.106 194.82 20.274C194.671 20.442 194.554 20.6427 194.47 20.876C194.386 21.1093 194.344 21.366 194.344 21.646V21.744H197.732V21.604C197.732 21.044 197.587 20.596 197.298 20.26C197.009 19.9147 196.612 19.742 196.108 19.742ZM210.724 26.686C210.724 27.442 210.435 28.0113 209.856 28.394C209.277 28.7767 208.335 28.968 207.028 28.968C206.431 28.968 205.922 28.926 205.502 28.842C205.091 28.7673 204.751 28.6553 204.48 28.506C204.219 28.3567 204.027 28.1747 203.906 27.96C203.785 27.7453 203.724 27.498 203.724 27.218C203.724 26.8167 203.831 26.504 204.046 26.28C204.27 26.056 204.578 25.902 204.97 25.818V25.664C204.419 25.4867 204.144 25.1133 204.144 24.544C204.144 24.1707 204.27 23.886 204.522 23.69C204.774 23.4847 205.077 23.34 205.432 23.256V23.2C205.003 22.9947 204.671 22.71 204.438 22.346C204.214 21.9727 204.102 21.5387 204.102 21.044C204.102 20.2973 204.349 19.6953 204.844 19.238C205.348 18.7807 206.067 18.552 207 18.552C207.513 18.552 207.952 18.6267 208.316 18.776V18.58C208.316 18.2533 208.391 18.0013 208.54 17.824C208.699 17.6373 208.941 17.544 209.268 17.544H210.388V18.776H208.904V19.07C209.231 19.2847 209.483 19.5647 209.66 19.91C209.837 20.246 209.926 20.624 209.926 21.044C209.926 21.7813 209.674 22.3787 209.17 22.836C208.666 23.284 207.947 23.508 207.014 23.508C206.659 23.508 206.342 23.4707 206.062 23.396C205.875 23.4613 205.712 23.5547 205.572 23.676C205.432 23.788 205.362 23.9373 205.362 24.124C205.362 24.32 205.451 24.46 205.628 24.544C205.805 24.628 206.057 24.67 206.384 24.67H208.176C209.072 24.67 209.721 24.852 210.122 25.216C210.523 25.5707 210.724 26.0607 210.724 26.686ZM209.296 26.854C209.296 26.602 209.198 26.4013 209.002 26.252C208.815 26.1027 208.47 26.028 207.966 26.028H205.502C205.166 26.224 204.998 26.504 204.998 26.868C204.998 27.1667 205.115 27.4047 205.348 27.582C205.591 27.7687 205.997 27.862 206.566 27.862H207.518C208.703 27.862 209.296 27.526 209.296 26.854ZM207.014 22.402C207.462 22.402 207.807 22.304 208.05 22.108C208.302 21.9027 208.428 21.59 208.428 21.17V20.89C208.428 20.47 208.302 20.162 208.05 19.966C207.807 19.7607 207.462 19.658 207.014 19.658C206.566 19.658 206.216 19.7607 205.964 19.966C205.721 20.162 205.6 20.47 205.6 20.89V21.17C205.6 21.59 205.721 21.9027 205.964 22.108C206.216 22.304 206.566 22.402 207.014 22.402ZM211.86 26V18.72H213.386V20.12H213.456C213.558 19.7467 213.773 19.42 214.1 19.14C214.426 18.86 214.879 18.72 215.458 18.72H215.864V20.19H215.262C214.655 20.19 214.188 20.288 213.862 20.484C213.544 20.68 213.386 20.9693 213.386 21.352V26H211.86ZM220.007 26.168C219.503 26.168 219.041 26.0793 218.621 25.902C218.21 25.7247 217.86 25.4727 217.571 25.146C217.281 24.81 217.057 24.4087 216.899 23.942C216.74 23.466 216.661 22.9387 216.661 22.36C216.661 21.7813 216.74 21.2587 216.899 20.792C217.057 20.316 217.281 19.9147 217.571 19.588C217.86 19.252 218.21 18.9953 218.621 18.818C219.041 18.6407 219.503 18.552 220.007 18.552C220.511 18.552 220.968 18.6407 221.379 18.818C221.799 18.9953 222.153 19.252 222.443 19.588C222.732 19.9147 222.956 20.316 223.115 20.792C223.273 21.2587 223.353 21.7813 223.353 22.36C223.353 22.9387 223.273 23.466 223.115 23.942C222.956 24.4087 222.732 24.81 222.443 25.146C222.153 25.4727 221.799 25.7247 221.379 25.902C220.968 26.0793 220.511 26.168 220.007 26.168ZM220.007 24.908C220.529 24.908 220.949 24.7493 221.267 24.432C221.584 24.1053 221.743 23.62 221.743 22.976V21.744C221.743 21.1 221.584 20.6193 221.267 20.302C220.949 19.9753 220.529 19.812 220.007 19.812C219.484 19.812 219.064 19.9753 218.747 20.302C218.429 20.6193 218.271 21.1 218.271 21.744V22.976C218.271 23.62 218.429 24.1053 218.747 24.432C219.064 24.7493 219.484 24.908 220.007 24.908ZM229.463 24.796H229.407C229.342 24.9733 229.253 25.146 229.141 25.314C229.038 25.482 228.903 25.6313 228.735 25.762C228.576 25.8833 228.38 25.9813 228.147 26.056C227.923 26.1307 227.662 26.168 227.363 26.168C226.607 26.168 226.019 25.9253 225.599 25.44C225.188 24.9547 224.983 24.2593 224.983 23.354V18.72H226.509V23.158C226.509 24.2873 226.976 24.852 227.909 24.852C228.105 24.852 228.296 24.8287 228.483 24.782C228.67 24.726 228.833 24.6467 228.973 24.544C229.122 24.4413 229.239 24.3107 229.323 24.152C229.416 23.9933 229.463 23.8067 229.463 23.592V18.72H230.989V26H229.463V24.796ZM233.174 18.72H234.7V19.924H234.77C234.929 19.4853 235.185 19.1493 235.54 18.916C235.904 18.6733 236.329 18.552 236.814 18.552C237.738 18.552 238.452 18.888 238.956 19.56C239.46 20.2227 239.712 21.156 239.712 22.36C239.712 23.564 239.46 24.502 238.956 25.174C238.452 25.8367 237.738 26.168 236.814 26.168C236.329 26.168 235.904 26.0467 235.54 25.804C235.185 25.5613 234.929 25.2253 234.77 24.796H234.7V28.8H233.174V18.72ZM236.352 24.852C236.884 24.852 237.309 24.684 237.626 24.348C237.943 24.0027 238.102 23.55 238.102 22.99V21.73C238.102 21.17 237.943 20.722 237.626 20.386C237.309 20.0407 236.884 19.868 236.352 19.868C235.885 19.868 235.493 19.9847 235.176 20.218C234.859 20.442 234.7 20.7407 234.7 21.114V23.606C234.7 23.9793 234.859 24.2827 235.176 24.516C235.493 24.74 235.885 24.852 236.352 24.852ZM243.769 26.168C243.079 26.168 242.5 26.0467 242.033 25.804C241.567 25.5613 241.161 25.2253 240.815 24.796L241.795 23.9C242.066 24.2267 242.365 24.4833 242.691 24.67C243.027 24.8473 243.415 24.936 243.853 24.936C244.301 24.936 244.633 24.852 244.847 24.684C245.071 24.5067 245.183 24.264 245.183 23.956C245.183 23.7227 245.104 23.5267 244.945 23.368C244.796 23.2 244.53 23.0927 244.147 23.046L243.475 22.962C242.729 22.8687 242.141 22.654 241.711 22.318C241.291 21.9727 241.081 21.464 241.081 20.792C241.081 20.4373 241.147 20.1247 241.277 19.854C241.408 19.574 241.59 19.3407 241.823 19.154C242.066 18.958 242.351 18.8087 242.677 18.706C243.013 18.6033 243.382 18.552 243.783 18.552C244.437 18.552 244.969 18.6547 245.379 18.86C245.799 19.0653 246.173 19.35 246.499 19.714L245.561 20.61C245.375 20.386 245.127 20.1947 244.819 20.036C244.521 19.868 244.175 19.784 243.783 19.784C243.363 19.784 243.051 19.868 242.845 20.036C242.649 20.204 242.551 20.4233 242.551 20.694C242.551 20.974 242.64 21.184 242.817 21.324C242.995 21.464 243.279 21.5667 243.671 21.632L244.343 21.716C245.146 21.8373 245.729 22.0753 246.093 22.43C246.467 22.7753 246.653 23.242 246.653 23.83C246.653 24.1847 246.583 24.5067 246.443 24.796C246.313 25.076 246.121 25.3187 245.869 25.524C245.617 25.7293 245.314 25.888 244.959 26C244.605 26.112 244.208 26.168 243.769 26.168ZM252.456 17.418C252.138 17.418 251.905 17.3433 251.756 17.194C251.616 17.0447 251.546 16.8533 251.546 16.62V16.382C251.546 16.1487 251.616 15.9573 251.756 15.808C251.905 15.6587 252.138 15.584 252.456 15.584C252.773 15.584 253.002 15.6587 253.142 15.808C253.282 15.9573 253.352 16.1487 253.352 16.382V16.62C253.352 16.8533 253.282 17.0447 253.142 17.194C253.002 17.3433 252.773 17.418 252.456 17.418ZM251.686 18.72H253.212V26H251.686V18.72ZM255.391 26V18.72H256.917V19.924H256.987C257.145 19.532 257.383 19.2053 257.701 18.944C258.027 18.6827 258.471 18.552 259.031 18.552C259.777 18.552 260.356 18.7993 260.767 19.294C261.187 19.7793 261.397 20.4747 261.397 21.38V26H259.871V21.576C259.871 20.4373 259.413 19.868 258.499 19.868C258.303 19.868 258.107 19.896 257.911 19.952C257.724 19.9987 257.556 20.0733 257.407 20.176C257.257 20.2787 257.136 20.4093 257.043 20.568C256.959 20.7267 256.917 20.9133 256.917 21.128V26H255.391ZM273.037 26L272.155 23.354H268.501L267.647 26H266.037L269.369 16.228H271.357L274.689 26H273.037ZM270.363 17.684H270.293L268.879 21.996H271.763L270.363 17.684ZM278.912 17.628V26H277.33V17.628H274.418V16.228H281.824V17.628H278.912ZM289.338 24.516H289.282C289.179 24.992 288.899 25.3887 288.442 25.706C287.994 26.014 287.396 26.168 286.65 26.168C286.071 26.168 285.534 26.0607 285.04 25.846C284.545 25.622 284.116 25.3 283.752 24.88C283.397 24.4507 283.117 23.9233 282.912 23.298C282.716 22.6633 282.618 21.9353 282.618 21.114C282.618 20.302 282.72 19.5833 282.926 18.958C283.131 18.3233 283.42 17.7913 283.794 17.362C284.167 16.9327 284.615 16.6107 285.138 16.396C285.66 16.172 286.244 16.06 286.888 16.06C287.765 16.06 288.507 16.256 289.114 16.648C289.72 17.0307 290.192 17.5673 290.528 18.258L289.24 19.014C289.053 18.5567 288.764 18.188 288.372 17.908C287.98 17.6187 287.485 17.474 286.888 17.474C286.113 17.474 285.488 17.7213 285.012 18.216C284.545 18.7107 284.312 19.4107 284.312 20.316V21.912C284.312 22.8173 284.545 23.5173 285.012 24.012C285.488 24.5067 286.113 24.754 286.888 24.754C287.196 24.754 287.49 24.7167 287.77 24.642C288.05 24.558 288.292 24.4413 288.498 24.292C288.712 24.1333 288.88 23.942 289.002 23.718C289.132 23.4847 289.198 23.214 289.198 22.906V22.15H287.182V20.792H290.724V26H289.338V24.516Z" fill="#5C5C5C"/>
</svg>
